<svg width="156" height="36" viewBox="0 0 156 36" fill="none" xmlns="http://www.w3.org/2000/svg">
<path fill-rule="evenodd" clip-rule="evenodd" d="M156.001 17.8389C156.001 27.691 148.014 35.6777 138.162 35.6777C128.31 35.6777 120.323 27.691 120.323 17.8389C120.323 7.98673 128.31 0 138.162 0C148.014 0 156.001 7.98673 156.001 17.8389ZM134.644 9.36948H130.02L130.001 11.4754H131.369L132.201 28.0096C132.223 28.4368 132.371 28.8375 132.617 29.1304C132.863 29.4233 133.188 29.5863 133.525 29.5864H142.396C142.733 29.586 143.058 29.4225 143.304 29.1291C143.549 28.8357 143.698 28.4344 143.719 28.0069L144.552 11.4754H145.92L145.901 9.36948H141.277V6.84237C141.277 6.61896 141.207 6.4047 141.083 6.24672C140.958 6.08875 140.789 6 140.613 6H135.307C135.131 6 134.963 6.08875 134.838 6.24672C134.714 6.4047 134.644 6.61896 134.644 6.84237V9.36948ZM141.65 12.739L141.277 26.2169H139.909L140.282 12.739H141.65ZM138.624 26.2169H137.297V12.739H138.624V26.2169ZM136.012 26.2169H134.644L134.271 12.739H135.639L136.012 26.2169ZM78.1015 24.695C77.2452 24.695 76.4535 24.5382 75.7262 24.2244C74.999 23.9106 74.3597 23.4776 73.8084 22.9254C73.2689 22.3606 72.8466 21.7017 72.5416 20.9487C72.2484 20.1831 72.1018 19.3548 72.1018 18.4637C72.1018 17.4471 72.2777 16.4995 72.6296 15.621C72.9932 14.7299 73.4917 13.9455 74.1251 13.2678C74.7702 12.59 75.5092 12.0629 76.342 11.6864C77.1748 11.2973 78.0663 11.1028 79.0164 11.1028C79.8727 11.1028 80.6644 11.2597 81.3916 11.5734C82.1189 11.8872 82.7523 12.3265 83.2918 12.8912C83.8431 13.4435 84.2654 14.1024 84.5587 14.868C84.8636 15.621 85.0161 16.4431 85.0161 17.3341C85.0161 18.3507 84.8343 19.3046 84.4707 20.1957C84.1188 21.0742 83.6203 21.8523 82.9751 22.5301C82.3417 23.2078 81.6086 23.7412 80.7758 24.1303C79.943 24.5068 79.0516 24.695 78.1015 24.695ZM78.295 21.7206C78.8111 21.7206 79.2862 21.6139 79.7202 21.4005C80.1659 21.1872 80.5588 20.8922 80.899 20.5157C81.2392 20.1266 81.5031 19.6811 81.6907 19.1791C81.8784 18.6645 81.9723 18.1186 81.9723 17.5412C81.9723 16.876 81.8374 16.2862 81.5676 15.7716C81.2978 15.2445 80.9225 14.8303 80.4415 14.5291C79.9724 14.2279 79.4328 14.0773 78.8228 14.0773C78.3185 14.0773 77.8434 14.184 77.3977 14.3973C76.952 14.6107 76.559 14.9119 76.2189 15.301C75.8787 15.6775 75.6148 16.123 75.4271 16.6376C75.2394 17.1396 75.1456 17.6793 75.1456 18.2566C75.1456 18.9218 75.2805 19.5179 75.5503 20.0451C75.8201 20.5596 76.1895 20.9675 76.6587 21.2687C77.1396 21.57 77.6851 21.7206 78.295 21.7206ZM87.8804 11.3098L85.2588 24.4879H88.2147L90.8362 11.3098H87.8804ZM90.2256 24.4879L92.8472 11.3098H95.6447L99.5507 19.2355L101.117 11.3098H103.914L101.293 24.4879H98.6709L94.6594 16.261L93.0231 24.4879H90.2256ZM108.615 14.1714H104.656L105.237 11.3098H116.093L115.512 14.1714H111.588L109.53 24.4879H106.556L108.615 14.1714ZM61.696 11.3099L59.0744 24.488H62.0303L62.9628 19.7627H66.6576C67.5256 19.7627 68.3115 19.5619 69.0153 19.1603C69.7191 18.7461 70.2762 18.1939 70.6868 17.5036C71.109 16.8133 71.3202 16.0477 71.3202 15.2068C71.3202 14.4412 71.1559 13.7698 70.8275 13.1925C70.4991 12.6026 70.0416 12.1445 69.4551 11.8182C68.8804 11.4793 68.2059 11.3099 67.4318 11.3099H61.696ZM66.6048 17.0894H63.5082L64.1064 14.0773H66.9039C67.3262 14.0773 67.6605 14.2028 67.9068 14.4538C68.1649 14.7048 68.2939 15.0437 68.2939 15.4704C68.2939 15.7716 68.2177 16.0477 68.0652 16.2987C67.9244 16.5372 67.725 16.7317 67.467 16.8823C67.2206 17.0204 66.9333 17.0894 66.6048 17.0894ZM46.1699 24.4879L48.7915 11.3098H51.7474L50.7445 16.374H55.7237L56.7266 11.3098H59.6825L57.0609 24.4879H54.105L55.1255 19.3296H50.1463L49.1258 24.4879H46.1699ZM37.3588 23.9985C38.3559 24.4503 39.4291 24.6762 40.5786 24.6762C41.6226 24.6762 42.5316 24.4942 43.3058 24.1302C44.0799 23.7537 44.6782 23.2266 45.1004 22.5489C45.5344 21.8711 45.7514 21.0805 45.7514 20.1768C45.7514 19.3108 45.4875 18.5829 44.9597 17.993C44.4436 17.4031 43.6811 16.9827 42.6724 16.7317L40.2619 16.1104C39.7928 15.9724 39.4526 15.8218 39.2415 15.6586C39.0421 15.4829 38.9424 15.257 38.9424 14.9809C38.9424 14.6169 39.1007 14.3345 39.4174 14.1337C39.7341 13.9204 40.1622 13.8137 40.7018 13.8137C41.4173 13.8137 42.0859 13.9643 42.7076 14.2655C43.3292 14.5667 43.9392 15.0311 44.5374 15.6586L46.4024 13.3995C45.7221 12.6841 44.901 12.1256 43.9392 11.724C42.9891 11.3224 41.9979 11.1216 40.9657 11.1216C39.9687 11.1216 39.1066 11.2973 38.3793 11.6487C37.6521 11.9876 37.0891 12.4708 36.6903 13.0983C36.3032 13.7258 36.1096 14.4789 36.1096 15.3574C36.1096 16.1983 36.3325 16.9011 36.7782 17.4659C37.224 18.0307 37.875 18.4386 38.7312 18.6896L41.3 19.405C41.8396 19.5556 42.2208 19.725 42.4437 19.9133C42.6782 20.1015 42.7955 20.34 42.7955 20.6286C42.7955 20.9048 42.7134 21.1495 42.5492 21.3628C42.3967 21.5637 42.1739 21.7205 41.8806 21.8335C41.5874 21.9339 41.2355 21.9841 40.825 21.9841C40.0743 21.9841 39.3646 21.8147 38.696 21.4758C38.0392 21.1244 37.3764 20.5784 36.7079 19.838L34.7725 22.0594C35.4997 22.9003 36.3618 23.5466 37.3588 23.9985ZM21.1268 24.488L28.6396 11.3099H32.0353L34.3578 24.488H31.2964L30.8037 21.3064H26.0884L24.3641 24.488H21.1268ZM27.4784 18.7273H30.4166L29.7656 14.5103L27.4784 18.7273ZM12.7603 11.3098L10.1387 24.4879H13.0945L14.0446 19.6873H16.4023L17.9858 24.4879H21.1176L19.2526 19.4426C19.8743 19.2418 20.4197 18.9343 20.8889 18.5201C21.3581 18.0934 21.7217 17.5914 21.9798 17.0141C22.2495 16.4242 22.3844 15.7966 22.3844 15.1315C22.3844 14.3784 22.2202 13.7195 21.8918 13.1548C21.5634 12.5774 21.1059 12.1256 20.5194 11.7993C19.9447 11.473 19.2702 11.3098 18.4961 11.3098H12.7603ZM17.6515 17.0517H14.5725L15.1707 14.0772H17.9682C18.3905 14.0772 18.7248 14.2027 18.9711 14.4537C19.2292 14.6922 19.3582 15.0185 19.3582 15.4327C19.3582 15.7339 19.2819 16.01 19.1295 16.261C18.9887 16.4995 18.7893 16.694 18.5312 16.8446C18.2732 16.9827 17.9799 17.0517 17.6515 17.0517ZM1.9002 24.488L3.95876 14.1714H0L0.580618 11.3099H11.4364L10.8558 14.1714H6.93223L4.87367 24.488H1.9002Z" fill="white"/>
</svg>
